<svg xmlns="http://www.w3.org/2000/svg" viewBox="0 0 13.31 25.11"><defs><style>.cls-1{fill:#231815;}</style></defs><g id="圖層_2" data-name="圖層 2"><g id="圖層_1-2" data-name="圖層 1"><path class="cls-1" d="M11,0H2.36A2.36,2.36,0,0,0,0,2.36V22.75a2.36,2.36,0,0,0,2.36,2.36H11a2.36,2.36,0,0,0,2.35-2.36V2.36A2.36,2.36,0,0,0,11,0ZM6.66,23.54A1.57,1.57,0,1,1,8.23,22,1.57,1.57,0,0,1,6.66,23.54ZM11,18.25a.13.13,0,0,1,0,.06.58.58,0,0,1-.58.52H3a.58.58,0,0,1-.59-.58V2.94A.58.58,0,0,1,3,2.36h7.42a.59.59,0,0,1,.59.58Z"/></g></g></svg>