<svg xmlns="http://www.w3.org/2000/svg" viewBox="0 0 29.61 47.73"><g id="圖層_2" data-name="圖層 2"><g id="圖層_1-2" data-name="圖層 1"><rect x="0.55" y="18.16" width="28.5" height="1.11"/><path d="M29.61,47.18H28.5V14.81a13.7,13.7,0,1,0-27.39,0V47.18H0V14.81a14.81,14.81,0,0,1,29.61,0Z"/><path d="M8.18,35.82H7.08v-21A14.83,14.83,0,0,1,18.21.47l.27,1.08A13.74,13.74,0,0,0,8.18,14.81Z"/><rect x="17.74" y="1.35" width="1.11" height="45.83"/><path d="M29.06,47.14a11.32,11.32,0,0,1,0-22.64v1.11a10.22,10.22,0,0,0,0,20.43Z"/><polygon points="29.61 46.62 29.61 47.73 0 47.73 0 47.02 17.82 18.42 18.76 19.01 1.55 46.62 29.61 46.62"/></g></g></svg>