<svg xmlns="http://www.w3.org/2000/svg" viewBox="0 0 141.18 41.3"><g id="圖層_2" data-name="圖層 2"><g id="圖層_1-2" data-name="圖層 1"><path d="M21,30.3a35.46,35.46,0,0,1-.73-8.75V13.39c-.05-5.12-4.15-6.94-8-6.94-3.4,0-7.15,1.49-11.12,4.43L1,11v.21A2.35,2.35,0,0,0,2.94,13a1.68,1.68,0,0,0,1.93-.75L5,12C6,10.29,7.36,7.68,12.29,7.68c3.22,0,5,2.11,5,5.92,0,2.68-3.27,3.17-7.06,3.73l-.13,0C5.64,18,.53,19.51.53,25.08c0,4,3.13,6.66,7.79,6.66a9.34,9.34,0,0,0,9-6c0,1.24.1,2.67.22,4.67l0,.36h3.57ZM17.27,19.73c0,6.44-3.54,10.76-8.81,10.76-3.24,0-5-1.86-5-5.41,0-3.92,1.94-5.81,6.69-6.5,2.94-.45,5.55-.84,7.08-2.22Z"/><path d="M42.8.42c.36,4.7.36,6.44.36,9.09V31.8c0,2.64,0,4.39-.36,9.09l0,.41h4.12l0-.41c-.36-4.7-.36-6.45-.36-9.09V22.46H49c2.15,0,7.87,0,10,.91l.54.23V20.05l-.53.22c-1,.41-3.58.91-10,.91H46.5V1.28H52c.63,0,1.81,0,3.2.09,6.85.24,8.91,1.37,9.21,1.48l.27-.05L66.21,0H42.77Z"/><path d="M98.24,40.75a22.88,22.88,0,0,1-1.8-4.7L86.08,0H81.82l.49.62a6.36,6.36,0,0,1,1,2.16l.22.74L74,36.09c-.13.46-.24.86-.34,1.23a16.92,16.92,0,0,1-1.26,3.43l-.27.55h2l0-.35a13,13,0,0,1,.72-3.32c.14-.4.28-.85.43-1.37l2.9-10L78.59,25l5.6-19.11L89.69,25l.38,1.28,3.06,10.59A16.56,16.56,0,0,1,94,41l0,.35h4.52Z"/><path d="M121.7,0h-9.31l0,.41c.25,4.7.25,6.45.25,9.1V31.8c0,2.65,0,4.4-.25,9.1l0,.4h9.31c12.19,0,19.48-7.72,19.48-20.65C141.18,7.53,134.08,0,121.7,0Zm-1.41,40H116V1.28h4.28c10.76,0,17.18,7.25,17.18,19.37C137.47,32.42,130.72,40,120.29,40Z"/><path d="M8,37.27c-2.48,0-5,0-8-.23v1.64c3-.24,5.48-.24,8-.24h5.62c2.48,0,5,0,8,.24V37c-2.95.23-5.48.23-8,.23Z"/></g></g></svg>