<svg xmlns="http://www.w3.org/2000/svg" viewBox="0 0 20.84 20.84"><g id="圖層_2" data-name="圖層 2"><g id="圖層_1-2" data-name="圖層 1"><path d="M10.42,20.84A10.42,10.42,0,1,1,20.84,10.42,10.43,10.43,0,0,1,10.42,20.84ZM10.42.5a9.92,9.92,0,1,0,9.92,9.92A9.93,9.93,0,0,0,10.42.5Z"/><path d="M12.75,8.4h-.61a.16.16,0,0,0-.16.17v2.21L10.27,8.46a.16.16,0,0,0-.14-.06H9.54a.16.16,0,0,0-.16.17v3.71a.16.16,0,0,0,.16.16h.61a.16.16,0,0,0,.16-.16V10.09L12,12.38a.16.16,0,0,0,.14.06h.59a.15.15,0,0,0,.16-.16V8.57A.16.16,0,0,0,12.75,8.4Zm-4.12,0H8a.17.17,0,0,0-.19.17v3.71a.17.17,0,0,0,.19.16h.59a.15.15,0,0,0,.16-.16V8.57A.15.15,0,0,0,8.63,8.4ZM7.18,11.51H5.56V8.57A.15.15,0,0,0,5.4,8.4H4.81a.17.17,0,0,0-.18.17v3.71a.17.17,0,0,0,.06.12.15.15,0,0,0,.1,0H7.18a.16.16,0,0,0,.17-.16v-.61A.16.16,0,0,0,7.18,11.51Zm8.88-2.19a.16.16,0,0,0,.16-.17V8.57a.16.16,0,0,0-.16-.17h-2.4a.16.16,0,0,0-.16.17v3.71a.16.16,0,0,0,.16.16h2.4a.16.16,0,0,0,.16-.16v-.59a.18.18,0,0,0-.16-.18H14.43v-.63h1.63a.16.16,0,0,0,.16-.16v-.59a.18.18,0,0,0-.16-.18H14.43V9.32ZM7.18,11.51H5.56V8.57A.15.15,0,0,0,5.4,8.4H4.81a.17.17,0,0,0-.18.17v3.71a.17.17,0,0,0,.06.12.15.15,0,0,0,.1,0H7.18a.16.16,0,0,0,.17-.16v-.61A.16.16,0,0,0,7.18,11.51ZM8.63,8.4H8a.17.17,0,0,0-.19.17v3.71a.17.17,0,0,0,.19.16h.59a.15.15,0,0,0,.16-.16V8.57A.15.15,0,0,0,8.63,8.4Zm4.12,0h-.61a.16.16,0,0,0-.16.17v2.21L10.27,8.46a.16.16,0,0,0-.14-.06H9.54a.16.16,0,0,0-.16.17v3.71a.16.16,0,0,0,.16.16h.61a.16.16,0,0,0,.16-.16V10.09L12,12.38a.16.16,0,0,0,.14.06h.59a.15.15,0,0,0,.16-.16V8.57A.16.16,0,0,0,12.75,8.4Zm3.31.92a.16.16,0,0,0,.16-.17V8.57a.16.16,0,0,0-.16-.17h-2.4a.16.16,0,0,0-.16.17v3.71a.16.16,0,0,0,.16.16h2.4a.16.16,0,0,0,.16-.16v-.59a.18.18,0,0,0-.16-.18H14.43v-.63h1.63a.16.16,0,0,0,.16-.16v-.59a.18.18,0,0,0-.16-.18H14.43V9.32ZM7.18,11.51H5.56V8.57A.15.15,0,0,0,5.4,8.4H4.81a.17.17,0,0,0-.18.17v3.71a.17.17,0,0,0,.06.12.15.15,0,0,0,.1,0H7.18a.16.16,0,0,0,.17-.16v-.61A.16.16,0,0,0,7.18,11.51ZM8.63,8.4H8a.17.17,0,0,0-.19.17v3.71a.17.17,0,0,0,.19.16h.59a.15.15,0,0,0,.16-.16V8.57A.15.15,0,0,0,8.63,8.4Zm4.12,0h-.61a.16.16,0,0,0-.16.17v2.21L10.27,8.46a.16.16,0,0,0-.14-.06H9.54a.16.16,0,0,0-.16.17v3.71a.16.16,0,0,0,.16.16h.61a.16.16,0,0,0,.16-.16V10.09L12,12.38a.16.16,0,0,0,.14.06h.59a.15.15,0,0,0,.16-.16V8.57A.16.16,0,0,0,12.75,8.4Zm3.31.92a.16.16,0,0,0,.16-.17V8.57a.16.16,0,0,0-.16-.17h-2.4a.16.16,0,0,0-.16.17v3.71a.16.16,0,0,0,.16.16h2.4a.16.16,0,0,0,.16-.16v-.59a.18.18,0,0,0-.16-.18H14.43v-.63h1.63a.16.16,0,0,0,.16-.16v-.59a.18.18,0,0,0-.16-.18H14.43V9.32Z"/></g></g></svg>