<svg xmlns="http://www.w3.org/2000/svg" viewBox="0 0 28.64 9.98"><defs><style>.cls-1{fill:#565045;}</style></defs><g id="圖層_2" data-name="圖層 2"><g id="圖層_1-2" data-name="圖層 1"><path class="cls-1" d="M20.06,0h-1.5a.39.39,0,0,0-.4.4V5.87L13.94.15A.39.39,0,0,0,13.59,0H12.14a.39.39,0,0,0-.4.4V9.58a.39.39,0,0,0,.4.4h1.5a.39.39,0,0,0,.4-.4V4.16l4.22,5.67a.39.39,0,0,0,.35.15h1.45a.37.37,0,0,0,.4-.4V.4A.39.39,0,0,0,20.06,0ZM9.88,0H8.43A.42.42,0,0,0,8,.4V9.58a.42.42,0,0,0,.46.4H9.88a.37.37,0,0,0,.4-.4V.4A.37.37,0,0,0,9.88,0ZM6.32,7.67h-4V.4a.37.37,0,0,0-.4-.4H.45A.41.41,0,0,0,0,.4V9.58a.43.43,0,0,0,.15.3A.38.38,0,0,0,.4,10H6.32a.39.39,0,0,0,.4-.4V8.08A.4.4,0,0,0,6.32,7.67ZM28.24,2.26a.39.39,0,0,0,.4-.4V.4a.39.39,0,0,0-.4-.4H22.32a.39.39,0,0,0-.4.4V9.58a.39.39,0,0,0,.4.4h5.92a.39.39,0,0,0,.4-.4V8.13a.44.44,0,0,0-.4-.46h-4V6.12h4a.39.39,0,0,0,.4-.4V4.26a.44.44,0,0,0-.4-.45h-4V2.26ZM6.32,7.67h-4V.4a.37.37,0,0,0-.4-.4H.45A.41.41,0,0,0,0,.4V9.58a.43.43,0,0,0,.15.3A.38.38,0,0,0,.4,10H6.32a.39.39,0,0,0,.4-.4V8.08A.4.4,0,0,0,6.32,7.67ZM9.88,0H8.43A.42.42,0,0,0,8,.4V9.58a.42.42,0,0,0,.46.4H9.88a.37.37,0,0,0,.4-.4V.4A.37.37,0,0,0,9.88,0ZM20.06,0h-1.5a.39.39,0,0,0-.4.4V5.87L13.94.15A.39.39,0,0,0,13.59,0H12.14a.39.39,0,0,0-.4.4V9.58a.39.39,0,0,0,.4.4h1.5a.39.39,0,0,0,.4-.4V4.16l4.22,5.67a.39.39,0,0,0,.35.15h1.45a.37.37,0,0,0,.4-.4V.4A.39.39,0,0,0,20.06,0Zm8.18,2.26a.39.39,0,0,0,.4-.4V.4a.39.39,0,0,0-.4-.4H22.32a.39.39,0,0,0-.4.4V9.58a.39.39,0,0,0,.4.4h5.92a.39.39,0,0,0,.4-.4V8.13a.44.44,0,0,0-.4-.46h-4V6.12h4a.39.39,0,0,0,.4-.4V4.26a.44.44,0,0,0-.4-.45h-4V2.26ZM6.32,7.67h-4V.4a.37.37,0,0,0-.4-.4H.45A.41.41,0,0,0,0,.4V9.58a.43.43,0,0,0,.15.3A.38.38,0,0,0,.4,10H6.32a.39.39,0,0,0,.4-.4V8.08A.4.4,0,0,0,6.32,7.67ZM9.88,0H8.43A.42.42,0,0,0,8,.4V9.58a.42.42,0,0,0,.46.4H9.88a.37.37,0,0,0,.4-.4V.4A.37.37,0,0,0,9.88,0ZM20.06,0h-1.5a.39.39,0,0,0-.4.4V5.87L13.94.15A.39.39,0,0,0,13.59,0H12.14a.39.39,0,0,0-.4.4V9.58a.39.39,0,0,0,.4.4h1.5a.39.39,0,0,0,.4-.4V4.16l4.22,5.67a.39.39,0,0,0,.35.15h1.45a.37.37,0,0,0,.4-.4V.4A.39.39,0,0,0,20.06,0Zm8.18,2.26a.39.39,0,0,0,.4-.4V.4a.39.39,0,0,0-.4-.4H22.32a.39.39,0,0,0-.4.4V9.58a.39.39,0,0,0,.4.4h5.92a.39.39,0,0,0,.4-.4V8.13a.44.44,0,0,0-.4-.46h-4V6.12h4a.39.39,0,0,0,.4-.4V4.26a.44.44,0,0,0-.4-.45h-4V2.26Z"/></g></g></svg>