<svg xmlns="http://www.w3.org/2000/svg" viewBox="0 0 17 16.99"><defs><style>.cls-1{fill:#565045;}</style></defs><g id="圖層_2" data-name="圖層 2"><g id="圖層_1-2" data-name="圖層 1"><path class="cls-1" d="M8.5,4.14A4.36,4.36,0,1,0,12.86,8.5,4.35,4.35,0,0,0,8.5,4.14Zm0,7.19A2.84,2.84,0,1,1,11.33,8.5,2.83,2.83,0,0,1,8.5,11.33ZM14.05,4a1,1,0,1,1-1-1A1,1,0,0,1,14.05,4Zm2.89,1a5.06,5.06,0,0,0-1.38-3.56A5.08,5.08,0,0,0,12,.06C10.6,0,6.4,0,5,.06A5.07,5.07,0,0,0,1.43,1.43,5.08,5.08,0,0,0,.06,5C0,6.39,0,10.6.06,12a5,5,0,0,0,1.37,3.56A5.09,5.09,0,0,0,5,16.93c1.41.08,5.61.08,7,0a5,5,0,0,0,3.56-1.37A5,5,0,0,0,16.94,12c.08-1.4.08-5.6,0-7ZM15.12,13.5a2.82,2.82,0,0,1-1.61,1.62c-1.12.44-3.77.34-5,.34s-3.89.1-5-.34A2.88,2.88,0,0,1,1.88,13.5c-.45-1.11-.35-3.77-.35-5s-.09-3.9.35-5A2.82,2.82,0,0,1,3.49,1.87c1.12-.44,3.77-.34,5-.34s3.89-.1,5,.34a2.88,2.88,0,0,1,1.61,1.62c.45,1.12.35,3.77.35,5S15.57,12.39,15.12,13.5Z"/></g></g></svg>