<svg xmlns="http://www.w3.org/2000/svg" viewBox="0 0 20.84 20.84"><g id="圖層_2" data-name="圖層 2"><g id="圖層_1-2" data-name="圖層 1"><path d="M10.42,20.84A10.42,10.42,0,1,1,20.84,10.42,10.43,10.43,0,0,1,10.42,20.84ZM10.42.5a9.92,9.92,0,1,0,9.92,9.92A9.93,9.93,0,0,0,10.42.5Z"/><path d="M10.42,7.88a2.64,2.64,0,1,0,2.64,2.64A2.64,2.64,0,0,0,10.42,7.88Zm0,4.35a1.72,1.72,0,1,1,1.72-1.71,1.72,1.72,0,0,1-1.72,1.71Zm3.36-4.46a.62.62,0,1,1-.62-.61A.62.62,0,0,1,13.78,7.77Zm1.74.63a3,3,0,0,0-.83-2.15,3,3,0,0,0-2.15-.83c-.85,0-3.39,0-4.24,0a3,3,0,0,0-2.15.82A3.06,3.06,0,0,0,5.32,8.4c-.05.84-.05,3.39,0,4.23a3.08,3.08,0,0,0,.83,2.16,3.1,3.1,0,0,0,2.15.83c.85,0,3.39,0,4.24,0a3.06,3.06,0,0,0,2.15-.83,3.08,3.08,0,0,0,.83-2.16c.05-.84.05-3.38,0-4.23Zm-1.09,5.14a1.75,1.75,0,0,1-1,1,11.24,11.24,0,0,1-3,.21,11.19,11.19,0,0,1-3-.21,1.75,1.75,0,0,1-1-1,11.19,11.19,0,0,1-.21-3,11.24,11.24,0,0,1,.21-3,1.72,1.72,0,0,1,1-1,11.19,11.19,0,0,1,3-.21,11.65,11.65,0,0,1,3,.21,1.75,1.75,0,0,1,1,1,11.24,11.24,0,0,1,.2,3A11.19,11.19,0,0,1,14.43,13.54Z"/></g></g></svg>